# xmcd
#
# Track frame offsets:
#	150
#	12908
#	25623
#	37437
#	47443
#	62144
#	85064
#	104114
#	116654
#	129560
#	140682
#	148884
#
# Disc length: 2181 seconds
#
# Revision: 1
# Processed by: cddbd v1.5.1PL0 Copyright (c) Steve Scherf et al.
# Submitted via: CDRider 2.0
#
DISCID=b108830c
DTITLE=J.J. Cale - Five
DYEAR=1979
DGENRE=Blues
TTITLE0=Thirteen Days
TTITLE1=Boilin Pot
TTITLE2=Ill Make Love To You
TTITLE3=Dont Cry Sister
TTITLE4=Too Much For Me
TTITLE5=Sensitive Kind
TTITLE6=Friday
TTITLE7=Lou-Easy Ann
TTITLE8=Lets Go To Tahiti
TTITLE9=Katy Kool Lady
TTITLE10=Fate Of A Fool
TTITLE11=Mona
EXTD=
EXTT0=
EXTT1=
EXTT2=
EXTT3=
EXTT4=
EXTT5=
EXTT6=
EXTT7=
EXTT8=
EXTT9=
EXTT10=
EXTT11=
PLAYORDER=
